<svg xmlns="http://www.w3.org/2000/svg" fill="none" viewBox="0 0 61 53" role="img" class="xl:hidden" aria-labelledby="Pebble logo"><path fill="#3E1E5D" d="M39.99 1.004C23.48 3.514-.87 20.714.78 34.726c1.456 12.342 17.885 20.095 34.405 17.586 16.509-2.51 21.932-14.295 22.745-26.687.483-19.869-1.42-27.14-17.94-24.62Z"></path><path fill="#591ED7" d="M43.71 1.067C29.09 3.565 5.7 20.62 7.16 34.566c1.29 12.284 15.84 20 30.47 17.502 14.62-2.497 21.77-14.227 22.49-26.56.72-12.332-1.78-26.948-16.41-24.44Z"></path><path fill="#fff" d="M47.43 32.717c1.06 1.03 1.24 2.672.33 3.819-2.95 3.732-8.02 6.696-14.45 6.696s-11.64-2.848-14.47-6.53a2.926 2.926 0 0 1 .27-3.908c1.07-1.04 2.74-1.127 3.97-.262 9.75 7.373 12.647 6.842 17.18 4.694 4.534-2.148 5.293-5.58 7.06-4.616l.12.116-.01-.01ZM50.37 28.45c1.895 0 3.43-1.492 3.43-3.333 0-1.84-1.535-3.333-3.43-3.333-1.894 0-3.43 1.492-3.43 3.333 0 1.841 1.536 3.333 3.43 3.333Z"></path></svg>